<?xml version="1.0" standalone="no"?>
<!DOCTYPE svg PUBLIC "-//W3C//DTD SVG 1.1//EN" "http://www.w3.org/Graphics/SVG/1.1/DTD/svg11.dtd">
<svg xmlns="http://www.w3.org/2000/svg" viewBox="0 0 623.0 623.0">
<path stroke="none" fill="#fcfcfc" d="M1.02778 1.02777L0 9L0 32L0 123L0 487L0 588L0 613L1.02778 621.972L9 623L32 623L123 623L487 623L588 623L613 623L621.972 621.972L623 614L623 591L623 500L623 136L623 35L623 10L621.972 1.02777L613 0L588 0L487 0L123 0L32 0L9 0L1.02778 1.02777z"/>
<path stroke="none" fill="#020202" d="M292 6.42438C229.295 14.6616 171.422 31.1716 121 71.4491C90.1418 96.0987 64.317 126.423 45.034 160.83C28.2709 190.741 15.3215 224.908 10.2994 259C2.82167 309.761 6.28826 361.201 23.0787 410C70.2991 547.24 214.884 630.864 357 610.714C501.836 590.179 614.397 464.506 617.985 318C621.537 172.991 518.749 42.9629 377 13.7145C350.032 8.15002 319.606 2.79797 292 6.42438z"/>
<path stroke="none" fill="#211380" d="M318.667 6.33331L329.333 6.66669L318.667 6.33331M278.667 7.33331L281.333 7.66669L278.667 7.33331M269.667 8.33331L271.333 8.66669L269.667 8.33331M345.667 8.33331L347.333 8.66669L345.667 8.33331M264.667 9.33331L266.333 9.66669L264.667 9.33331M353.667 9.33331L355.333 9.66669L353.667 9.33331M360.667 10.3333L362.333 10.6667L360.667 10.3333M252.667 11.3333L253.333 11.6667L252.667 11.3333M241.667 13.3333L242.333 13.6667L241.667 13.3333M375.667 13.3333L377.333 13.6667L375.667 13.3333M237.667 14.3333L239.333 14.6667L237.667 14.3333M233.667 15.3333L235.333 15.6667L233.667 15.3333M290.667 15.3333L298 16L321 16L329.333 16.6667L322 15L299 15L290.667 15.3333M229.667 16.3333L231.333 16.6667L229.667 16.3333z"/>
<path stroke="none" fill="#fcfcfc" d="M289 16.3333C278.074 18.4577 266.945 18.597 256 21.3333C229.026 28.0769 201.737 42.1551 180 59.1667C118.204 107.529 87.431 187.148 95 265C97.9818 295.67 108.09 323.197 120.833 351C125.495 361.171 129.91 372.788 131 384C133.197 406.602 121.712 422.891 137.667 443.167C141.294 447.776 144.723 452.429 151 453.667C152.169 453.897 154.8 453.633 154.333 451.833C153.533 448.746 146.372 443.603 144.167 441C138.418 434.215 133.805 425.475 131.333 417C129.848 411.909 132.589 406.851 133.667 402C136.055 391.255 140.255 381.291 139 370C137.059 352.535 122.409 334.801 115.167 319C111.362 310.698 108.249 300.996 107 292C106.866 291.036 104.615 283 106.667 283C108.246 283 109.097 290.864 109.333 292C111.294 301.412 114.999 310.109 118.333 319C125.461 338.007 145.986 354.284 148 375C149.368 389.075 137.7 400.629 139 414C139.686 421.056 143.083 425.25 148.167 429.833C149.35 430.9 153.815 434.237 155.5 432.5C157.128 430.821 153.804 427.184 152.833 426C149.41 421.822 143.502 415.984 144.333 410C146.421 394.972 156.526 385.345 152.667 369C149.117 353.968 138.255 342.431 131.167 329C120.997 309.731 112.457 288.11 110 266C107.028 239.255 103.842 209.257 111.833 183C117.618 163.995 125.234 141.649 136.333 125C179.162 60.7571 254.643 19.3818 333 27C349.554 28.6095 366.064 33.0687 382 37.3333C402.306 42.7673 423.104 55.9948 440 68.6667C463.271 86.1196 485.157 109.087 498.833 135C551.489 234.768 510.544 363.575 410 416.167C392.192 425.482 373.262 430.049 354 435.667C343.445 438.745 329.958 435.656 320 439.333C315.601 440.958 311.067 447.677 310.167 452C309.884 453.357 309.653 459 307.333 459C306.131 459 306.058 454.698 306 454C305.648 449.778 303.76 443.898 300 441.5C285.922 432.523 263.872 433.957 248 428.667C222.274 420.091 195.314 405.314 176 386C170.599 380.599 165.24 375.548 160 370C159.385 369.349 156.521 365.156 155.5 365.667C154.639 366.097 158 380.727 158 383C158 390.462 153.41 396.921 153 404C152.517 412.33 159.686 422.421 166 427.667C184.029 442.645 202.643 438.287 224.667 438.667C238.98 438.913 254.757 444.692 267 451.833C274.916 456.451 291.333 460.997 291.333 472C291.333 475.328 289.25 490.266 286 490.833C282.234 491.491 284.519 472.369 280.667 469.5C277.974 467.495 266.068 473 262 473L232 473C228.142 473 222.413 471.92 219 474C213.957 477.073 219.285 481.986 217.667 483.5C213.677 487.233 207.149 483.703 203.5 491C198.958 500.084 207.44 512.813 216 515.667C218.933 516.644 222.103 515.529 225 517C229.779 519.426 232.436 524.967 238 526.667C242.423 528.018 249.001 525.14 253 527.5C256.798 529.741 255.615 536.39 256.167 540C257.338 547.666 260.052 560.143 265.333 566C270.48 571.708 277.045 562.505 283 563.167C286.364 563.54 288.162 566.897 291.167 567.833C293.689 568.619 296.833 566.856 299.167 568C302.083 569.43 302.538 573.613 306 574.667C310.704 576.098 314.613 568.602 320 569.5C323.319 570.053 325.743 574.712 329 574.667C331.777 574.628 333.845 570.74 336 569.333C340.661 566.291 345.47 568.657 350.667 564.5C354.37 561.537 356.816 554.426 361 552.333C363.44 551.113 363.853 555.827 366.833 554.833C368.313 554.34 372.309 547.621 372.833 546C377.081 532.852 367.269 534.811 359 532.833C357.415 532.454 358.205 531.065 359 530.333C363.605 526.097 378.612 518.556 385 519C395.202 519.708 407.22 524.051 417 517.667C423.324 513.538 424.325 506.574 426.333 500C427.766 495.31 428.63 489.872 428.833 485C429.118 478.17 419 479.466 419 475.167C419 472.181 438.299 469.971 441 469.333C442.604 468.955 448.059 468.097 446.5 465.167C444.448 461.309 425.698 466.64 422 467C399.091 469.227 375.961 468.449 353 471C347.913 471.565 333.844 475.789 331.167 468C327.112 456.205 351.061 445.98 359 443.333C372.018 438.994 391.295 435.668 405 438.333C424.138 442.055 440.755 456.485 458.833 441.667C472.608 430.376 466.995 405.92 473.833 391C474.91 388.651 478.66 376 481.667 376C482.307 376 478.369 387.459 477.833 389C473.062 402.741 478.156 418.15 472 432C470.736 434.843 460.946 444.991 462.5 446.5C467.065 450.935 477.042 436 478.5 433C482.311 425.159 479 415.252 479 407C479 404.089 478.071 399.317 480.833 397.333C482.474 396.156 481.869 405.654 482 407C482.944 416.714 486.448 425.508 481.833 435C479.202 440.414 474.416 445.013 470 449C468.666 450.204 465.333 451.751 465.333 453.833C465.333 457.684 478.781 449.698 480 448.667C493.343 437.376 486.544 414.981 488 400C489.275 386.883 495.049 373.338 499.333 361C506.324 340.867 516.924 322.227 523.667 302C532.838 274.487 537.832 243.128 535 214C527.476 136.607 479.266 62.5273 406 32C381.574 21.8224 353.917 19.5198 328 17C315.91 15.8246 301.095 13.9815 289 16.3333z"/>
<path stroke="none" fill="#211380" d="M388.667 16.3333L390.333 16.6667L388.667 16.3333M222.667 18.3333L223.333 18.6667L222.667 18.3333M219.667 19.3333L220.333 19.6667L219.667 19.3333M216.667 20.3333L217.333 20.6667L216.667 20.3333M213.667 21.3333L214.333 21.6667L213.667 21.3333M210.667 22.3333L211.333 22.6667L210.667 22.3333M207.667 23.3333L208.333 23.6667L207.667 23.3333M204.667 24.3333L205.333 24.6667L204.667 24.3333M202.667 25.3333L203.333 25.6667L202.667 25.3333M199.667 26.3333L200.333 26.6667L199.667 26.3333M196.667 27.3333L197.333 27.6667L196.667 27.3333M327.667 27.3333L335.333 27.6667L327.667 27.3333M194.667 28.3333L195.333 28.6667L194.667 28.3333M289.667 28.3333L293.333 28.6667L289.667 28.3333M192.667 29.3333L193.333 29.6667L192.667 29.3333M281.667 29.3333L284.333 29.6667L281.667 29.3333M344.667 29.3333L348.333 29.6667L344.667 29.3333M189.667 30.3333L190.333 30.6667L189.667 30.3333M352.667 30.3333L354.333 30.6667L352.667 30.3333M187.667 31.3333L188.333 31.6667L187.667 31.3333M272.667 31.3333L273.333 31.6667L272.667 31.3333M357.667 31.3333L359.333 31.6667L357.667 31.3333M185.667 32.3333L186.333 32.6667L185.667 32.3333M361.667 32.3333L362.333 32.6667L361.667 32.3333M370.667 34.3333L372.333 34.6667L370.667 34.3333M178.667 35.3333L179.333 35.6667L178.667 35.3333M298 35.3333L285.667 37.6667C287.816 39.8156 299.458 39.896 303 41.3333C312.814 45.3157 321.431 54.6858 327.667 63C344.463 85.3953 349.071 116.136 357.333 142C362.466 158.068 371.312 172.936 376.667 189C388.148 223.444 402.643 256.62 418.833 289C429.072 309.478 439.552 330.116 448.833 351C450.095 353.839 456.174 369.667 459 369.667C461.395 369.667 464.515 364.671 466 363C472.493 355.695 478.337 347.366 483.333 339C503.856 304.636 514 267.108 514 227C514 137.73 448.118 61.9462 363 40.6667C343.31 35.7441 318.351 31.3763 298 35.3333M373.667 35.3333L374.333 35.6667L373.667 35.3333M176.667 36.3333L177.333 36.6667L176.667 36.3333M252.667 36.3333L253.333 36.6667L252.667 36.3333M376.667 36.3333L377.333 36.6667L376.667 36.3333M174.667 37.3333L175.333 37.6667L174.667 37.3333M200.894 37.5555C191.405 38.9545 180.236 45.8978 172 50.588C152.116 61.9108 134.054 74.3074 116.593 89.0648C0.261597 187.384 -13.4081 362.702 73.588 484C105.622 528.665 151.196 561.874 202 582.199C213.73 586.892 225.746 590.807 238 593.87C240.941 594.606 247.569 597.641 250.463 596.389C253.304 595.16 249.63 587.395 247.662 586.477C240.972 583.356 231.696 586.134 227.065 577.861C224.858 573.918 227.602 569.227 226.602 565C224.485 556.05 219.423 547.961 217.394 539C216.531 535.194 215.128 525.225 211.782 523.065C207.946 520.588 201.352 522.292 197 521.866C185.617 520.75 175.413 520.382 165 514.977C153.695 509.109 146.35 497.289 144.194 484.94C143.405 480.417 147.411 474.208 144.657 470.495C142.102 467.05 135.619 465.222 132 462.94C125.882 459.082 118.683 452.398 115.213 446C103.59 424.573 111.446 401.243 106.81 378.134C102.582 357.057 96.9253 336.061 93.1944 314.94C80.971 245.74 87.5969 163.917 130.069 105.94C145.594 84.7482 163.18 65.4924 184.722 50.3287C188.381 47.7532 202.544 37.3122 200.894 37.5555M380.667 37.3333L382.333 37.6667L380.667 37.3333M172.667 38.3333L173.333 38.6667L172.667 38.3333M383.667 38.3333L385.333 38.6667L383.667 38.3333M170.667 39.3333L171.333 39.6667L170.667 39.3333M168.667 40.3333L169.333 40.6667L168.667 40.3333M388.667 40.3333L390.333 40.6667L388.667 40.3333M391.667 41.3333L392.333 41.6667L391.667 41.3333M234.667 42.3333L235.333 42.6667L234.667 42.3333M270 42.3333L258.667 44.6667L267 44L292 43.6667L303.333 46.6667L295 42.8333L270 42.3333z"/>
<path stroke="none" fill="#fcfcfc" d="M270 43.4244C256.929 45.1617 243.475 48.3445 231 52.6952C228.709 53.4943 218.378 56.0527 219.752 59.7755C221.038 63.261 229.552 59.6954 232 59.2855C242.603 57.5102 257.767 52.5236 267.83 58.6528C293.287 74.158 304.365 115.766 308.3 143C309.354 150.298 312.188 157.506 311.791 165C308.375 229.462 257.681 283.683 231.564 339.985C224.994 354.149 215.801 367.725 207.576 381C205.759 383.931 198.86 391.745 201.136 395.397C203.182 398.68 210.983 396.655 214 396.285C229.987 394.321 235.493 391.788 241.289 376C258.266 329.762 279.62 284.272 299.157 238.999C303.564 228.785 307.769 216.927 314.746 208.17C317.854 204.27 321.653 199.822 326.985 202.461C339.28 208.547 346.766 233.842 350.931 246C363.417 282.444 378.904 318.093 392.796 354C397.54 366.26 400.479 379.444 405.914 391.424C408.159 396.371 410.266 402.394 417 401.515C427.064 400.203 439.222 390.507 448 385.576C451.086 383.843 456.164 382.282 455.667 377.945C454.567 368.361 445.589 355.678 441.247 347C429.95 324.421 418.034 302.022 407.674 279C387.062 233.201 368.224 186.246 351.054 139C344.368 120.604 340.959 100.989 332.851 83.0146C320.528 55.6937 301.126 39.2874 270 43.4244z"/>
<path stroke="none" fill="#211380" d="M161.667 44.3333L162.333 44.6667L161.667 44.3333M398.667 44.3333L399.333 44.6667L398.667 44.3333M159.667 45.3333L160.333 45.6667L159.667 45.3333M227.667 45.3333L228.333 45.6667L227.667 45.3333M254.667 45.3333L256.333 45.6667L254.667 45.3333M225.667 46.3333L226.333 46.6667L225.667 46.3333M250.667 46.3333L253.333 46.6667L250.667 46.3333M246 47.3333C242.756 48.492 246.395 48.9067 248 48.3333C251.137 47.213 247.378 46.841 246 47.3333M405.667 47.3333L407.333 47.6667L405.667 47.3333M154 48L155 49L154 48M220.667 48.3333L221.333 48.6667L220.667 48.3333M305.667 48.3333L306.333 48.6667L305.667 48.3333M218.667 49.3333L219.333 49.6667L218.667 49.3333M241.667 49.3333L243.333 49.6667L241.667 49.3333M307.667 49.3333L308.333 49.6667L307.667 49.3333z"/>
<path stroke="none" fill="#fb1307" d="M446.667 49.3333L447.333 49.6667L446.667 49.3333z"/>
<path stroke="none" fill="#211380" d="M236.667 50.3333L238.333 50.6667L236.667 50.3333M310.667 51.5L312.333 52.5L310.667 51.5M212.667 52.3333L214.333 52.6667L212.667 52.3333M230.667 52.3333L231.333 52.6667L230.667 52.3333z"/>
<path stroke="none" fill="#fb1307" d="M452.056 52.6945C451.638 53.2005 462.843 62.402 464 63.3055C477.587 73.9166 488.089 87.8452 498.778 101C536.319 147.205 547.461 214.683 537.889 271.972C531.718 308.91 510.966 342.207 500.278 378C493.37 401.131 501.453 427.426 489.917 449C486.318 455.729 478.654 460.505 471.778 463.389C468.584 464.728 463.28 463.895 461.278 467.111C459.054 470.684 460.538 475.089 459.889 478.972C458.209 489.027 456.106 504.226 450.5 513C444.529 522.346 435.611 530.3 424 530.972C417 531.377 403.166 528.079 397.111 531.722C394.416 533.344 394.376 537.103 392.917 539.611C389.903 544.792 386.446 549.99 385.25 556C383.762 563.473 385.189 569.964 381.194 577C377.218 584.003 362.219 589.702 362.806 598.667C362.953 600.921 372.435 598.128 374 597.806C386.242 595.284 398.156 591.615 410 587.667C456.635 572.122 500.039 543.512 532.917 507C613.753 417.228 627.574 288.619 577.75 181C558.66 139.766 526.998 101.513 490 75.3055C480.876 68.8424 471.612 62.7183 462 57C460.805 56.2891 453.247 51.2484 452.056 52.6945z"/>
<path stroke="none" fill="#211380" d="M146 53L147 54L146 53M209.5 53.5L211.333 53.8333L209.5 53.5M227.667 53.3333L228.333 53.6667L227.667 53.3333M224.667 54.3333L226.333 54.6667L224.667 54.3333M143 55L144 56L143 55M208 55L209 56L208 55M221.111 55.5C219.161 56.166 220.485 56.9795 221.889 56.5C223.839 55.834 222.515 55.0204 221.111 55.5M206.167 56.5L206.833 57.5L206.167 56.5M247.667 56.3333L259.333 56.6667L247.667 56.3333M140 57L141 58L140 57M265.056 57.5L268.944 59.2778L265.056 57.5M203.667 58.3333L204.333 58.6667L203.667 58.3333M218.333 58.6667L218.667 59.3333L218.333 58.6667M137 59L138 60L137 59M201.167 59.5L201.833 60.5L201.167 59.5M230.667 59.3333L232.333 59.6667L230.667 59.3333M226.667 60.3333L228.333 60.6667L226.667 60.3333M134 61L135 62L134 61M198.167 61.5L198.833 62.5L198.167 61.5M219.5 61.6667L221.333 62.6667L219.5 61.6667M222.667 61.3333L225.333 61.6667L222.667 61.3333M250 61.3333L245 62L256 62.1667L262.333 62.6667L250 61.3333z"/>
<path stroke="none" fill="#fb1307" d="M250 62.4252C240.196 63.7439 229.758 67.8199 220.054 68.3372C215.503 68.5797 214.85 62.5979 209.96 64.5911C190.166 72.6594 170.899 92.4927 158.12 109C122.3 155.267 106.275 217.879 120.549 275.17C129.256 310.119 143.247 337.896 166 366C171.617 372.938 178.102 378.743 185 384.386C187.22 386.201 190.681 389.99 193.816 389.833C198.703 389.587 203.207 377.656 205.4 374C215.604 356.984 225.876 339.744 234.753 322C258.711 274.114 299.336 226.939 304.829 172C306.471 155.587 302.431 138.771 298.37 123C292.844 101.535 277.761 58.6909 250 62.4252z"/>
<path stroke="none" fill="#211380" d="M195.167 63.5L195.833 64.5L195.167 63.5M130 64L131 65L130 64M235.667 64.3333L237.333 64.6667L235.667 64.3333M193 65L194 66L193 65M323.333 65.6667L323.667 66.3333L323.333 65.6667M191.167 66.5L191.833 67.5L191.167 66.5M276.5 66.6667L277.5 68.3333L276.5 66.6667M126 67L127 68L126 67M187.167 69.5L187.833 70.5L187.167 69.5M278.5 69.6667L279.5 71.3333L278.5 69.6667M122 70L123 71L122 70M184.222 71.8055L184.222 72.9722L184.222 71.8055M281.083 73.3611L282.917 75.6389L281.083 73.3611M117 74L118 75L117 74M181 74L182 75L181 74M116 75L117 76L116 75M180 75L181 76L180 75M329.333 75.6667L329.667 77.3333L329.333 75.6667M178.5 76.5L179.333 77L178.5 76.5M284.5 77.6667L285.5 79.3333L284.5 77.6667M111 79L112 80L111 79M175 79L176 80L175 79M331.333 79.6667L331.667 80.3333L331.333 79.6667M110 80L111 81L110 80M174 80L175 81L174 80M286.5 80.6667L287.5 82.3333L286.5 80.6667M109 81L110 82L109 81M173 81L174 82L173 81M332.333 81.6667L332.667 82.3333L332.333 81.6667M172 82L173 83L172 82M288.333 83.6667L288.667 84.3333L288.333 83.6667M168.699 85.1064L163.56 91.6343L168.699 85.1064M289.5 85.6667L290.5 87.3333L289.5 85.6667M334.333 85.6667L334.667 87.3333L334.333 85.6667M488.5 86.6667L489.5 88.3333L488.5 86.6667M102 87L103 88L102 87M101 88L102 89L101 88M291.333 88.6667L291.667 89.3333L291.333 88.6667M521 88L522 89L521 88M100 89L101 90L100 89M335.5 90.0555L336.306 91.9445L335.5 90.0555M99 90L100 91L99 90M292.333 90.6667L292.667 91.3333L292.333 90.6667M523 90L524 91L523 90M98 91L99 92L98 91M524 91L525 92L524 91M97 92L98 93L97 92M293.333 92.6667L293.667 93.3333L293.333 92.6667M96 93L97 94L96 93M337.333 93.6667L337.667 94.3333L337.333 93.6667M95 94L96 95L95 94M160 94L161 95L160 94M294.333 94.6667L294.667 95.3333L294.333 94.6667M94 95L95 96L94 95M159 95L160 96L159 95M93 96L94 97L93 96M158 96L159 97L158 96M295.333 96.6667L295.667 97.3333L295.333 96.6667M92 97L93 98L92 97M157 97L158 98L157 97M338.5 98.0555L339.5 100.944L338.5 98.0555M91 98L92 99L91 98M296.333 98.6667L296.667 100.333L296.333 98.6667M90 99L91 100L90 99M154.972 99.8333L154.333 101.944L154.972 99.8333M89 100L90 101L89 100M88 101L89 102L88 101M297.333 101.667L297.667 102.333L297.333 101.667M87 102L88 103L87 102M340.333 102.667L340.667 104.333L340.333 102.667M152 103L153 104L152 103M150.75 105.056L150.25 106.944L150.75 105.056M341.333 105.667L341.667 107.333L341.333 105.667M148 108L149 109L148 108M342.5 109.056L343.5 111.944L342.5 109.056M81 109L82 110L81 109M146.75 110.056L146.25 111.944L146.75 110.056M80 110L81 111L80 110M79 111L80 112L79 111M300.333 111.667L300.667 112.333L300.333 111.667M483 111L484 112L483 111M484.333 112.667L484.667 113.333L484.333 112.667M544 112L545 113L544 112M144 113.667L144 115.333L144 113.667M301.333 113.667L301.667 115.333L301.333 113.667M344.333 113.667L344.667 115.333L344.333 113.667M75 116L76 117L75 116M142 116.667L142 118.333L142 116.667M302.333 116.667L302.667 118.333L302.333 116.667M345.333 116.667L345.667 119.333L345.333 116.667M74 117L75 118L74 117M488.333 118.667L488.667 119.333L488.333 118.667M140 119.667L140 121.333L140 119.667M303.333 119.667L303.667 122.333L303.333 119.667M346.333 120.667L346.667 121.333L346.333 120.667M490.333 121.667L490.667 122.333L490.333 121.667M70 122L71 123L70 122M137.597 123.366L132.222 133.634L137.597 123.366M304.333 123.667L307.667 138.333L304.333 123.667M491 123L492 124L491 123M553 123L554 124L553 123M492.333 124.667L492.667 125.333L492.333 124.667M67 126L68 127L67 126M347.5 127.056L348.5 129.944L347.5 127.056M493.5 126.667L494.5 128.333L493.5 126.667M556 127L557 128L556 127M495.333 129.667L495.667 130.333L495.333 129.667M64 130L65 131L64 130M496.5 131.667L497.5 133.333L496.5 131.667M349.333 132.667L349.667 134.333L349.333 132.667M61 134L62 135L61 134M498.333 134.667L498.667 135.333L498.333 134.667M519.333 134.667L519.667 136.333L519.333 134.667M130.333 135.667L130.667 136.333L130.333 135.667M350.333 135.667L350.667 137.333L350.333 135.667M562 135L563 136L562 135M499.333 136.667L499.667 137.333L499.333 136.667M59 137L60 138L59 137M351.5 139.056L352.5 141.944L351.5 139.056M500.333 138.667L500.667 139.333L500.333 138.667M564 138L565 139L564 138M521.333 139.667L521.667 140.333L521.333 139.667M57 140L58 141L57 140M501.333 140.667L501.667 141.333L501.333 140.667M566 141L567 142L566 141M55 143L56 144L55 143M353.333 143.667L353.667 145.333L353.333 143.667M568 144L569 145L568 144M303.333 145.667L303.667 148.333L303.333 145.667M53 146L54 147L53 146M354.333 146.667L354.667 147.333L354.333 146.667M570 147L571 148L570 147M355.333 148.667L355.667 150.333L355.333 148.667M51.3333 149.667L51.6667 150.333L51.3333 149.667M505.333 149.667L505.667 150.333L505.333 149.667M304.333 150.667L304.667 153.333L304.333 150.667M572 150L573 151L572 150M356.333 151.667L356.667 153.333L356.333 151.667M506.333 151.667L506.667 152.333L506.333 151.667M310.333 152.667L310.667 173.333L310.333 152.667M574.333 153.667L574.667 154.333L574.333 153.667M48 154L49 155L48 154M357.333 154.667L357.667 155.333L357.333 154.667M305.333 155.667L305.667 173.333L305.333 155.667M358.333 156.667L358.667 157.333L358.333 156.667M508.333 157.667L508.667 158.333L508.333 157.667M45.3333 159.667L45.6667 160.333L45.3333 159.667M578.333 160.667L578.667 161.333L578.333 160.667M44.3333 161.667L44.6667 162.333L44.3333 161.667M510.333 161.667L510.667 163.333L510.333 161.667M118.333 162.667L118.667 164.333L118.333 162.667M360.333 162.667L360.667 164.333L360.333 162.667M511.333 164.667L511.667 166.333L511.333 164.667M361.333 165.667L361.667 166.333L361.333 165.667M531.333 165.667L531.667 168.333L531.333 165.667M581 166L582 167L581 166M362.333 167.667L362.667 169.333L362.333 167.667M512.333 167.667L512.667 169.333L512.333 167.667M40.3333 168.667L40.6667 169.333L40.3333 168.667M583.333 169.667L583.667 170.333L583.333 169.667M39.3333 170.667L39.6667 171.333L39.3333 170.667M363.333 170.667L363.667 171.333L363.333 170.667M513.333 170.667L513.667 172.333L513.333 170.667M584.333 171.667L584.667 172.333L584.333 171.667M38.3333 172.667L38.6667 173.333L38.3333 172.667M364.333 172.667L364.667 174.333L364.333 172.667M585.333 173.667L585.667 174.333L585.333 173.667M37.3333 174.667L37.6667 175.333L37.3333 174.667M123.5 174.5L123.667 178.333L123.5 174.5M304.333 174.667L304.667 177.333L304.333 174.667M534.333 174.667L534.667 179.333L534.333 174.667M365.694 176.056L366.5 177.944L365.694 176.056M586.333 175.667L586.667 176.333L586.333 175.667M36.3333 176.667L36.6667 177.333L36.3333 176.667M587.333 177.667L587.667 178.333L587.333 177.667M35.3333 178.667L35.6667 179.333L35.3333 178.667M515.333 178.667L515.667 179.333L515.333 178.667M303.333 179.667L303.667 182.333L303.333 179.667M309.333 179.667L309.667 180.333L309.333 179.667M367.333 179.667L367.667 180.333L367.333 179.667M588.333 179.667L588.667 180.333L588.333 179.667M112.5 180.5L111.667 188.333L112.5 180.5M589.333 181.667L589.667 182.333L589.333 181.667M308.333 182.667L308.667 187.333L308.333 182.667M368.333 182.667L368.667 183.333L368.333 182.667M32.3333 185.667L32.6667 186.333L32.3333 185.667M591 186L592 187L591 186M31.3333 187.667L31.6667 188.333L31.3333 187.667M370.333 187.667L370.667 189.333L370.333 187.667M537.333 187.667L537.667 195.333L537.333 187.667M307.333 188.667L307.667 191.333L307.333 188.667M518.333 188.667L518.667 192.333L518.333 188.667M592.333 188.667L592.667 189.333L592.333 188.667M30.3333 189.667L30.6667 190.333L30.3333 189.667M371.694 191.056L372.5 192.944L371.694 191.056M593.333 190.667L593.667 191.333L593.333 190.667M29.3333 192.667L29.6667 193.333L29.3333 192.667M110.333 192.667L110.667 194.333L110.333 192.667M306.167 192.667L305.667 197.333L306.167 192.667M28.3333 194.667L28.6667 195.333L28.3333 194.667M373.5 195.056L375.5 199.944L373.5 195.056M109.333 195.667L109.667 199.333L109.333 195.667M595.333 195.667L595.667 196.333L595.333 195.667M27.3333 196.667L27.6667 197.333L27.3333 196.667M304.333 198.667L304.667 200.333L304.333 198.667M519.333 198.667L519.667 200.333L519.333 198.667M26.3333 199.667L26.6667 200.333L26.3333 199.667M117.333 200.667L117.667 211.333L117.333 200.667M597.333 200.667L597.667 201.333L597.333 200.667M303.333 201.667L303.667 203.333L303.333 201.667M320.167 201.5L325.333 201.667L320.167 201.5M376.333 201.667L376.667 202.333L376.333 201.667M520.333 201.667L520.667 205.333L520.333 201.667M25.3333 202.667L25.6667 203.333L25.3333 202.667M329.806 204.056L331.194 205.944L329.806 204.056M377.5 204.056L378.5 206.944L377.5 204.056M598.333 203.667L598.667 204.333L598.333 203.667M24.3333 204.667L24.6667 205.333L24.3333 204.667M302.333 204.667L302.667 206.333L302.333 204.667M599.333 205.667L599.667 206.333L599.333 205.667M315.278 206.833L312.278 212.944L315.278 206.833M23.3333 207.667L23.6667 208.333L23.3333 207.667M108.333 207.667L108.667 209.333L108.333 207.667M332.5 207.667L333.5 209.333L332.5 207.667z"/>
<path stroke="none" fill="#fb1307" d="M322.134 208.912C318.318 210.832 316.428 216.467 314.551 220C308.791 230.843 303.43 242.5 299.148 254C284.128 294.345 265.425 333.268 248.87 373C246.21 379.385 242.159 394.028 236.588 398.13C233.62 400.315 228.493 399.962 225 400.606C223.618 400.861 212.259 402.644 212.366 402.912C213.4 405.499 220.615 408.048 223 409.241C233.001 414.241 243.406 418.139 254 421.667C292.191 434.382 335.746 434.692 374 422C383.824 418.741 396.192 415.82 404.708 409.755C408.326 407.178 404.161 401.662 402.806 399C398.368 390.289 395.857 380.179 392.5 371C377.791 330.784 364.749 287.722 345.926 249.259C340.735 238.653 336.999 227.471 331.287 217C329.606 213.918 326.91 206.509 322.134 208.912z"/>
<path stroke="none" fill="#211380" d="M540.389 209.056L540 218L540 244L540.028 253.944L541 244L541 217L540.389 209.056M600.333 208.667L600.667 209.333L600.333 208.667M300.333 209.667L300.667 210.333L300.333 209.667M22.3333 210.667L22.6667 211.333L22.3333 210.667M334.333 210.667L334.667 211.333L334.333 210.667M379.5 211.056L380.306 212.944L379.5 211.056M521.333 210.667L521.667 218.333L521.333 210.667M601.333 211.667L601.667 212.333L601.333 211.667M299.333 212.667L299.667 213.333L299.333 212.667M335.5 212.667L336.5 214.333L335.5 212.667M21.3333 213.667L21.6667 214.333L21.3333 213.667M107.333 214.667L107.667 226.333L107.333 214.667M292.333 214.667L292.667 215.333L292.333 214.667M310.333 214.667L310.667 215.333L310.333 214.667M602.333 214.667L602.667 215.333L602.333 214.667M337.333 215.667L337.667 216.333L337.333 215.667M20.3333 216.667L20.6667 217.333L20.3333 216.667M309.333 216.667L309.667 217.333L309.333 216.667M338.333 217.667L338.667 218.333L338.333 217.667M603.333 217.667L603.667 218.333L603.333 217.667M297.333 218.667L297.667 219.333L297.333 218.667M308.333 218.667L308.667 219.333L308.333 218.667M382.5 219.056L385.5 226.944L382.5 219.056M19.3333 219.667L19.6667 220.333L19.3333 219.667M290.333 219.667L290.667 220.333L290.333 219.667M339.333 219.667L339.667 220.333L339.333 219.667M296.333 220.667L296.667 221.333L296.333 220.667M307.333 220.667L307.667 221.333L307.333 220.667M604.333 220.667L604.667 221.333L604.333 220.667M340.333 221.667L340.667 222.333L340.333 221.667M18.3333 222.667L18.6667 223.333L18.3333 222.667M295.333 222.667L295.667 224.333L295.333 222.667M306.333 222.667L306.667 223.333L306.333 222.667M341.333 223.667L341.667 224.333L341.333 223.667M605.333 223.667L605.667 224.333L605.333 223.667M305.333 225.667L305.667 226.333L305.333 225.667M342.333 225.667L342.667 226.333L342.333 225.667M304.333 227.667L304.667 228.333L304.333 227.667M343.333 227.667L343.667 228.333L343.333 227.667M606.333 227.667L606.667 228.333L606.333 227.667M16.3333 229.667L16.6667 231.333L16.3333 229.667M292.333 229.667L292.667 230.333L292.333 229.667M303.333 229.667L303.667 230.333L303.333 229.667M344.333 229.667L344.667 230.333L344.333 229.667M309.333 230.667L309.667 231.333L309.333 230.667M387.333 230.667L387.667 232.333L387.333 230.667M607.333 230.667L607.667 232.333L607.333 230.667M15.3333 233.667L15.6667 235.333L15.3333 233.667M301.333 233.667L301.667 234.333L301.333 233.667M345.5 233.667L346.5 235.333L345.5 233.667M388.333 233.667L388.667 234.333L388.333 233.667M608.333 234.667L608.667 236.333L608.333 234.667M300.333 235.667L300.667 237.333L300.333 235.667M107.333 236.667L107.667 244.333L107.333 236.667M347.333 236.667L347.667 238.333L347.333 236.667M389.333 236.667L389.667 237.333L389.333 236.667M14.3333 237.667L14.6667 239.333L14.3333 237.667M521.333 237.667L521.667 242.333L521.333 237.667M299.333 238.667L299.667 239.333L299.333 238.667M390.333 238.667L390.667 239.333L390.333 238.667M609.333 238.667L609.667 239.333L609.333 238.667M348.333 239.667L348.667 240.333L348.333 239.667M298.333 240.667L298.667 241.333L298.333 240.667M13.3333 241.667L13.6667 242.333L13.3333 241.667M349.333 241.667L349.667 243.333L349.333 241.667M297.333 242.667L297.667 243.333L297.333 242.667M610.333 242.667L610.667 243.333L610.333 242.667M278.333 243.667L278.667 244.333L278.333 243.667M285.333 243.667L285.667 244.333L285.333 243.667M350.333 244.667L350.667 245.333L350.333 244.667M392.5 245.056L394.5 249.944L392.5 245.056M284.333 245.667L284.667 246.333L284.333 245.667M344.333 245.667L344.667 247.333L344.333 245.667M295.333 246.667L295.667 247.333L295.333 246.667M283 247L284 248L283 247M611.333 248.667L611.667 249.333L611.333 248.667M352.333 249.667L352.667 250.333L352.333 249.667M281.333 250.667L281.667 251.333L281.333 250.667M108.333 251.667L108.667 253.333L108.333 251.667M395.333 251.667L395.667 253.333L395.333 251.667M11.3333 252.667L11.6667 253.333L11.3333 252.667M117.333 252.667L117.667 261.333L117.333 252.667M299.333 252.667L299.667 253.333L299.333 252.667M292.333 253.667L292.667 254.333L292.333 253.667M353.333 253.667L353.667 254.333L353.333 253.667M397.333 255.667L397.667 256.333L397.333 255.667M278 256.667L278 258.333L278 256.667M291.333 256.667L291.667 258.333L291.333 256.667M355.333 256.667L355.667 259.333L355.333 256.667M297.333 257.667L297.667 258.333L297.333 257.667M398.333 257.667L398.667 259.333L398.333 257.667M613.333 258.667L613.667 260.333L613.333 258.667M109.333 259.667L109.667 261.333L109.333 259.667M290.333 259.667L290.667 260.333L290.333 259.667M519.333 259.667L519.667 261.333L519.333 259.667M356.5 260.667L357.667 264.333L356.5 260.667M399.333 260.667L399.667 261.333L399.333 260.667M289.333 261.667L289.667 263.333L289.333 261.667M267.333 262.667L267.667 263.333L267.333 262.667M274.333 262.667L274.667 263.333L274.333 262.667M295.333 262.667L295.667 263.333L295.333 262.667M400.333 262.667L400.667 263.333L400.333 262.667M9.33333 264.667L9.66667 266.333L9.33333 264.667M273.333 264.667L273.667 265.333L273.333 264.667M287.972 265.056L287.833 266.944L287.972 265.056M614.333 264.667L614.667 265.333L614.333 264.667M358.333 265.667L358.667 266.333L358.333 265.667M518.333 266.667L518.667 267.333L518.333 266.667M537.333 266.667L537.667 274.333L537.333 266.667M110.333 267.667L110.667 268.333L110.333 267.667M359.5 268.056L360.5 270.944L359.5 268.056M286.333 268.667L286.667 270.333L286.333 268.667M8.33333 269.667L8.66667 271.333L8.33333 269.667M270.333 269.667L270.667 270.333L270.333 269.667M403.333 269.667L403.667 270.333L403.333 269.667M354.333 270.667L354.667 271.333L354.333 270.667M285.333 271.667L285.667 272.333L285.333 271.667M615.333 271.667L615.667 273.333L615.333 271.667M96.3333 272.667L96.6667 275.333L96.3333 272.667M361.333 272.667L361.667 273.333L361.333 272.667M120.333 273.667L120.667 277.333L120.333 273.667M284.333 273.667L284.667 275.333L284.333 273.667M405.333 273.667L405.667 274.333L405.333 273.667M517.333 273.667L517.667 275.333L517.333 273.667M112.333 276.667L112.667 277.333L112.333 276.667M283.333 276.667L283.667 277.333L283.333 276.667M363.333 277.667L363.667 278.333L363.333 277.667M407.5 278.056L408.306 279.944L407.5 278.056M7.33333 278.667L7.66667 281.333L7.33333 278.667M606.333 280.667L606.667 292.333L606.333 280.667M616.333 280.667L616.667 284.333L616.333 280.667M113.333 281.667L113.667 282.333L113.333 281.667M281.333 281.667L281.667 282.333L281.333 281.667M364.333 281.667L364.667 282.333L364.333 281.667M409.333 281.667L409.667 282.333L409.333 281.667M515.333 281.667L515.667 282.333L515.333 281.667M410.333 283.667L410.667 285.333L410.333 283.667M534.333 283.667L534.667 287.333L534.333 283.667M114.333 285.667L114.667 286.333L114.333 285.667M514.333 285.667L514.667 286.333L514.333 285.667M260.333 286.667L260.667 287.333L260.333 286.667M279.333 286.667L279.667 287.333L279.333 286.667M366.5 287.056L367.5 289.944L366.5 287.056M411.333 286.667L411.667 287.333L411.333 286.667M123.333 287.667L123.667 288.333L123.333 287.667M6.33333 288.667L6.66667 299.333L6.33333 288.667M278.333 288.667L278.667 290.333L278.333 288.667M412.333 288.667L412.667 289.333L412.333 288.667M115.333 289.667L115.667 290.333L115.333 289.667M513.333 289.667L513.667 290.333L513.333 289.667M413.333 290.667L413.667 291.333L413.333 290.667M368.333 291.667L368.667 292.333L368.333 291.667M414.333 292.667L414.667 293.333L414.333 292.667M116.333 293.667L116.667 295.333L116.333 293.667M276.333 293.667L276.667 295.333L276.333 293.667M369.333 293.667L369.667 295.333L369.333 293.667M512.333 293.667L512.667 295.333L512.333 293.667M531.333 293.667L531.667 298.333L531.333 293.667M617.333 293.667L617.667 298.333L617.333 293.667M415.333 294.667L415.667 295.333L415.333 294.667M117.333 296.667L117.667 297.333L117.333 296.667M275.333 296.667L275.667 297.333L275.333 296.667M370.333 296.667L370.667 297.333L370.333 296.667M416.333 296.667L416.667 297.333L416.333 296.667M511.333 296.667L511.667 297.333L511.333 296.667M274.333 298.667L274.667 299.333L274.333 298.667M417.333 298.667L417.667 299.333L417.333 298.667M118.333 299.667L118.667 301.333L118.333 299.667M280.333 299.667L280.667 301.333L280.333 299.667M510.333 299.667L510.667 301.333L510.333 299.667M418.333 300.667L418.667 301.333L418.333 300.667M119.333 302.667L119.667 303.333L119.333 302.667M272.333 302.667L272.667 303.333L272.333 302.667M366.333 302.667L366.667 303.333L366.333 302.667M419.333 302.667L419.667 303.333L419.333 302.667M509.333 302.667L509.667 304.333L509.333 302.667M373.333 303.667L373.667 304.333L373.333 303.667M420.333 304.667L420.667 305.333L420.333 304.667M120.333 305.667L120.667 306.333L120.333 305.667M129.333 305.667L129.667 306.333L129.333 305.667M271.333 305.667L271.667 306.333L271.333 305.667M508.333 305.667L508.667 306.333L508.333 305.667M249.333 306.667L249.667 307.333L249.333 306.667M421.333 306.667L421.667 307.333L421.333 306.667M507.333 307.667L507.667 308.333L507.333 307.667M276.333 308.667L276.667 309.333L276.333 308.667M375.333 308.667L375.667 309.333L375.333 308.667M422.333 308.667L422.667 309.333L422.333 308.667M122.333 310.667L122.667 312.333L122.333 310.667M506.333 310.667L506.667 311.333L506.333 310.667M268.333 312.667L268.667 313.333L268.333 312.667M376.5 312.667L377.667 316.333L376.5 312.667M424.333 312.667L424.667 313.333L424.333 312.667M525.333 312.667L525.667 314.333L525.333 312.667M267.333 314.667L267.667 315.333L267.333 314.667M426.333 316.667L426.667 317.333L426.333 316.667M125.333 317.667L125.667 318.333L125.333 317.667M378.5 318.056L380.5 322.944L378.5 318.056M503.333 317.667L503.667 318.333L503.333 317.667M135.333 318.667L135.667 319.333L135.333 318.667M265.333 318.667L265.667 319.333L265.333 318.667M427.333 318.667L427.667 319.333L427.333 318.667M264.333 320.667L264.667 321.333L264.333 320.667M428.333 320.667L428.667 321.333L428.333 320.667M429.333 322.667L429.667 323.333L429.333 322.667M617.333 323.667L617.667 330.333L617.333 323.667M381.333 324.667L381.667 325.333L381.333 324.667M430.333 324.667L430.667 325.333L430.333 324.667M262.333 325.667L262.667 326.333L262.333 325.667M382.333 326.667L382.667 328.333L382.333 326.667M431.333 326.667L431.667 327.333L431.333 326.667M237.333 328.667L237.667 329.333L237.333 328.667M261 328.667L261 330.333L261 328.667M432.333 328.667L432.667 329.333L432.333 328.667M141.333 330.667L141.667 331.333L141.333 330.667M433.333 330.667L433.667 331.333L433.333 330.667M517.333 330.667L517.667 331.333L517.333 330.667M606.333 330.667L606.667 340.333L606.333 330.667M266.333 331.667L266.667 332.333L266.333 331.667M434.333 332.667L434.667 333.333L434.333 332.667M496 332.667L496 334.333L496 332.667M7.33333 334.667L7.66667 340.333L7.33333 334.667M227.333 334.667L227.667 335.333L227.333 334.667M258.333 334.667L258.667 335.333L258.333 334.667M435.333 334.667L435.667 335.333L435.333 334.667M257.333 336.667L257.667 337.333L257.333 336.667M436.333 336.667L436.667 337.333L436.333 336.667M514.167 338.056L513.833 340.944L514.167 338.056M386.5 339.056L387.5 341.944L386.5 339.056M437.333 338.667L437.667 339.333L437.333 338.667M231.333 339.667L231.667 340.333L231.333 339.667M256.333 339.667L256.667 340.333L256.333 339.667M438.333 340.667L438.667 341.333L438.333 340.667M230.333 341.667L230.667 342.333L230.333 341.667M255.333 341.667L255.667 342.333L255.333 341.667M439.333 342.667L439.667 343.333L439.333 342.667M229.333 343.667L229.667 344.333L229.333 343.667M254.333 343.667L254.667 344.333L254.333 343.667M388.5 343.667L389.667 347.333L388.5 343.667M8.33333 344.667L8.66667 348.333L8.33333 344.667M440.333 344.667L440.667 345.333L440.333 344.667M253.333 345.667L253.667 347.333L253.333 345.667M615.333 345.667L615.667 350.333L615.333 345.667M441.333 346.667L441.667 347.333L441.333 346.667M510.333 347.667L510.667 349.333L510.333 347.667M252.333 348.667L252.667 349.333L252.333 348.667M390.333 348.667L390.667 349.333L390.333 348.667M442.333 348.667L442.667 349.333L442.333 348.667M225.333 350.667L225.667 351.333L225.333 350.667M251.333 350.667L251.667 351.333L251.333 350.667M391.333 350.667L391.667 352.333L391.333 350.667M443.333 350.667L443.667 351.333L443.333 350.667M444.333 352.667L444.667 353.333L444.333 352.667M508.167 352.667L507.667 357.333L508.167 352.667M392.5 354.056L393.5 356.944L392.5 354.056M9.33333 354.667L9.66667 356.333L9.33333 354.667z"/>
<path stroke="none" fill="#fcfcfc" d="M115.611 355.366L116.245 364L120.847 388L123.741 395.894L125 388L120.394 364L115.611 355.366z"/>
<path stroke="none" fill="#211380" d="M445.333 354.667L445.667 355.333L445.333 354.667M614.333 354.667L614.667 356.333L614.333 354.667M249.333 355.667L249.667 356.333L249.333 355.667M221.333 357.667L221.667 358.333L221.333 357.667M248.333 357.667L248.667 358.333L248.333 357.667M394.333 358.667L394.667 359.333L394.333 358.667M10.3333 359.667L10.6667 361.333L10.3333 359.667M220.333 359.667L220.667 360.333L220.333 359.667M447.5 360.056L448.306 361.944L447.5 360.056M603.333 359.667L603.667 360.333L603.333 359.667M613.333 361.667L613.667 363.333L613.333 361.667M246.333 362.667L246.667 363.333L246.333 362.667M449.333 363.667L449.667 364.333L449.333 363.667M154 364L155 365L154 364M245.333 364.667L245.667 366.333L245.333 364.667M504.333 364.667L504.667 367.333L504.333 364.667M11.3333 365.667L11.6667 367.333L11.3333 365.667M450.333 365.667L450.667 366.333L450.333 365.667M612.333 366.667L612.667 368.333L612.333 366.667M244.333 367.667L244.667 368.333L244.333 367.667M451.333 367.667L451.667 368.333L451.333 367.667M243.333 369.667L243.667 370.333L243.333 369.667M452.333 369.667L452.667 370.333L452.333 369.667M12.3333 370.667L12.6667 372.333L12.3333 370.667M249.333 370.667L249.667 372.333L249.333 370.667M398.333 370.667L398.667 371.333L398.333 370.667M242.333 371.667L242.667 372.333L242.333 371.667M453.333 371.667L453.667 372.333L453.333 371.667M611.333 371.667L611.667 373.333L611.333 371.667M399.5 374.056L400.5 376.944L399.5 374.056M454.333 373.667L454.667 374.333L454.333 373.667M501.333 373.667L501.667 375.333L501.333 373.667M13.3333 375.667L13.6667 377.333L13.3333 375.667M610.333 376.667L610.667 377.333L610.333 376.667M246.333 377.667L246.667 379.333L246.333 377.667M401.333 378.667L401.667 380.333L401.333 378.667M14.3333 379.667L14.6667 380.333L14.3333 379.667M609.333 380.667L609.667 381.333L609.333 380.667M402.333 381.667L402.667 382.333L402.333 381.667M453.667 382.333L454.333 382.667L453.667 382.333M15.3333 383.667L15.6667 385.333L15.3333 383.667M153.333 383.667L153.667 386.333L153.333 383.667M237.333 383.667L237.667 385.333L237.333 383.667M498.333 384.667L498.667 391.333L498.333 384.667M608.333 384.667L608.667 386.333L608.333 384.667M236 386.667L236 388.333L236 386.667M446.667 386.333L447.333 386.667L446.667 386.333M16.3333 387.667L16.6667 389.333L16.3333 387.667M398.333 387.667L398.667 388.333L398.333 387.667M444.667 387.333L445.333 387.667L444.667 387.333M442.667 388.333L443.333 388.667L442.667 388.333M607.333 388.667L607.667 390.333L607.333 388.667M440.667 389.333L441.333 389.667L440.667 389.333M234.333 390.667L234.667 392.333L234.333 390.667M399.333 390.667L399.667 391.333L399.333 390.667M437.727 390.963L436.273 393.176L437.727 390.963M17.3333 391.667L17.6667 392.333L17.3333 391.667M181 391L182 392L181 391M406.333 391.667L406.667 392.333L406.333 391.667M606.333 392.667L606.667 393.333L606.333 392.667M18.3333 394.667L18.6667 396.333L18.3333 394.667M199.333 394.667L200.333 396.5L199.333 394.667M225.667 394.333L227.333 394.667L225.667 394.333M429.667 395.333L430.333 395.667L429.667 395.333M605.333 395.667L605.667 397.333L605.333 395.667M212.667 396.333L214.333 396.667L212.667 396.333M426.806 396.806L426.194 398.194L426.806 396.806M122.333 397.667L123.333 399.5L122.333 397.667M201.667 397.333L208.333 397.667L201.667 397.333M408.333 397.667L408.667 398.333L408.333 397.667M402.333 398.667L402.667 399.333L402.333 398.667M604.333 398.667L604.667 399.333L604.333 398.667M227.667 399.333L232.333 399.667L227.667 399.333M422 399.583C420.989 399.839 420.663 400.942 422 400.611C423.019 400.359 423.332 399.247 422 399.583z"/>
<path stroke="none" fill="#fcfcfc" d="M121.451 401.176C118.677 403.135 119.14 409.995 118.409 413C114.606 428.64 118.068 441.746 131.015 452.532C133.381 454.504 147.611 464.439 150.654 460.087C151.707 458.583 137.907 451.377 136.295 449.844C123.332 437.52 120.558 423.953 123.624 407.001C123.814 405.95 124.331 399.142 121.451 401.176z"/>
<path stroke="none" fill="#211380" d="M222.667 400.333L225.333 400.667L222.667 400.333M210.667 401.333L220.333 401.667L210.667 401.333M411.667 401.333L417.333 402.667L411.667 401.333M418.667 401.333L419.333 401.667L418.667 401.333M495.333 402.667L495 410L495 430L495.667 437.333L496 430L496 410L495.333 402.667M197.667 403.5L199.333 404.5L197.667 403.5M591.333 404.667L591.667 405.333L591.333 404.667M200.667 405.5L202.333 406.5L200.667 405.5M203.667 407.5L205.333 408.5L203.667 407.5M138.333 408.667L138.667 415.333L138.333 408.667M206.667 409.5L208.333 410.5L206.667 409.5M209.667 411.333L210.333 411.667L209.667 411.333M468.333 411.667L468.667 419.333L468.333 411.667M410.667 415.333L411.333 415.667L410.667 415.333M408.667 416.333L409.333 416.667L408.667 416.333M598.333 416.667L598.667 417.333L598.333 416.667M474.333 417.667L474.667 424.333L474.333 417.667M585.333 420.667L585.667 421.333L585.333 420.667M397.667 421.333L398.333 421.667L397.667 421.333M395.667 422.333L396.333 422.667L395.667 422.333M390.667 424.333L391.333 424.667L390.667 424.333M239.667 425.333L240.333 425.667L239.667 425.333M387.667 425.333L389.333 425.667L387.667 425.333M242.667 426.333L243.333 426.667L242.667 426.333M245.667 427.333L246.333 427.667L245.667 427.333M382.667 427.333L384.333 427.667L382.667 427.333M247.667 428.333L249.333 428.667L247.667 428.333M379.667 428.333L381.333 428.667L379.667 428.333M251.667 429.333L252.333 429.667L251.667 429.333M376.667 429.333L377.333 429.667L376.667 429.333M171.333 430.667L171.667 431.333L171.333 430.667M372.667 430.333L373.333 430.667L372.667 430.333M257.667 431.333L259.333 431.667L257.667 431.333M368.667 431.333L369.333 431.667L368.667 431.333M156.333 432.667L156.667 433.333L156.333 432.667M364.667 432.333L365.333 432.667L364.667 432.333M266.667 433.333L267.333 433.667L266.667 433.333M360.667 433.333L361.333 433.667L360.667 433.333M269.667 434.333L271.333 434.667L269.667 434.333M355.667 434.333L356.333 434.667L355.667 434.333M33 435L34 436L33 435M350.667 435.333L354.333 435.667L350.667 435.333M282.667 436.333L283.333 436.667L282.667 436.333M344.667 436.333L348.333 436.667L344.667 436.333M133.333 437.667L133.667 438.333L133.333 437.667M336.667 437.333L341.333 437.667L336.667 437.333M323.667 438.333L334.333 438.667L323.667 438.333M378.667 438.333L381.333 438.667L378.667 438.333M453.667 444.333L454.333 444.667L453.667 444.333M461.333 445.667L461.667 446.333L461.333 445.667M489.333 449.667L489.667 450.333L489.333 449.667M41 451L42 452L41 451M582 452L583 453L582 452M43 455L44 456L43 455M580 456L581 457L580 456M44 457L45 458L44 457M579 458L580 459L579 458M152.333 459.667L152.667 460.333L152.333 459.667M577 461L578 462L577 461M47 462L48 463L47 462M468.667 463.333L472.333 463.667L468.667 463.333M576 463L577 464L576 463M48 464L49 465z"/>
<path stroke="none" fill="#fcfcfc" d="M167.159 465.086C162.56 467.438 166.526 472.418 170.566 470.392C174.472 468.433 170.846 463.2 167.159 465.086z"/>
<path stroke="none" fill="#211380" d="M575 465L576 466L575 465M50 467L51 468z"/>
<path stroke="none" fill="#fcfcfc" d="M183.17 468.931C178.659 469.794 179.085 476.026 183.961 475.279C188.724 474.55 187.912 468.024 183.17 468.931z"/>
<path stroke="none" fill="#211380" d="M573 468L574 469L573 468M459.333 470.667L459.667 481.333L459.333 470.667M572 470L573 471L572 470M165.667 471.333L169.333 471.667L165.667 471.333z"/>
<path stroke="none" fill="#fcfcfc" d="M195.09 471.801C191.152 473.337 192.248 480.163 196.505 478.338C199.659 476.986 199.469 470.092 195.09 471.801z"/>
<path stroke="none" fill="#211380" d="M571 471L572 472L571 471M53 472L54 473z"/>
<path stroke="none" fill="#fcfcfc" d="M206.104 474.175C202.953 475.651 203.951 480.93 207.529 479.338C210.377 478.071 209.609 472.534 206.104 474.175z"/>
<path stroke="none" fill="#211380" d="M570 473L571 474L570 473M55 475L56 476L55 475M568 476L569 477L568 476M450.667 477.333L451.333 477.667L450.667 477.333M57 478L58 479z"/>
<path stroke="none" fill="#fcfcfc" d="M448.375 479.086C444.493 481.593 443.496 497.467 443.105 502C442.975 503.502 442.677 509.983 445.87 508.079C450.879 505.09 451.945 491.212 451.996 486C452.015 484.088 452.415 476.478 448.375 479.086z"/>
<path stroke="none" fill="#211380" d="M566 479L567 480L566 479M59 481L60 482L59 481M439.667 482.333L441.667 491.333L439.667 482.333M564 482L565 483z"/>
<path stroke="none" fill="#fcfcfc" d="M162.285 483.851C153.729 486.997 164.606 512.174 172.346 509.183C174.602 508.311 171.906 504.201 171.357 502.999C169.617 499.191 168.82 481.448 162.285 483.851M437.451 484.086C431.787 487.829 430.211 504.731 428.75 510.999C428.228 513.24 427.651 519.192 431.846 516.914C438.485 513.306 440.194 498.684 440.83 492C441.004 490.178 441.68 481.292 437.451 484.086z"/>
<path stroke="none" fill="#211380" d="M61 484L62 485L61 484M562 485L563 486z"/>
<path stroke="none" fill="#fcfcfc" d="M192.336 487.176C186.95 489.909 189.909 498.186 191.985 501.981C192.645 503.187 195.049 507.417 196.997 505.824C198.623 504.494 195.981 485.326 192.336 487.176z"/>
<path stroke="none" fill="#211380" d="M561 486L562 487z"/>
<path stroke="none" fill="#fcfcfc" d="M178.595 488.086C173.099 491.903 178.801 502.359 181.684 505.981C182.582 507.109 185.981 511.509 187.864 509.824C189.385 508.464 186.845 505.144 186.161 503.999C184.542 501.287 181.215 486.266 178.595 488.086z"/>
<path stroke="none" fill="#211380" d="M64 488L65 489L64 488M559 489L560 490L559 489M159.333 491.667L159.667 494.333L159.333 491.667M67 492L68 493z"/>
<path stroke="none" fill="#020202" d="M292.759 494.176C290.8 495.404 290.722 500.919 290.356 503C288.901 511.289 284.71 521.979 288.328 530C289.532 532.668 293.541 541.821 297.621 539.824C306.629 535.416 301.469 511.08 299.623 504C299.069 501.875 296.725 491.691 292.759 494.176z"/>
<path stroke="none" fill="#211380" d="M556 493L557 494L556 493M70 496L71 497z"/>
<path stroke="none" fill="#020202" d="M316.191 497.256C306.954 499.827 307.335 522.997 308.184 530C308.647 533.813 309.953 540.396 315.044 539.446C331.867 536.308 320.649 521.031 318.679 510C318.3 507.877 320.11 496.166 316.191 497.256z"/>
<path stroke="none" fill="#211380" d="M71 497L72 498L71 497M314 497.667L314.5 498.5L314 497.667M553 497L554 498L553 497M552 498L553 499L552 498M74 501L75 502L74 501M75 502L76 503L75 502M549 502L550 503L549 502M548 503L549 504L548 503M79 507L80 508L79 507M80 508L81 509L80 508M544 508L545 509L544 508M81 509L82 510L81 509M543 509L544 510L543 509M451.333 510.667L451.667 511.333L451.333 510.667M542 510L543 511L542 510M450.333 512.667L450.667 513.333L450.333 512.667M419 515L420 516L419 515M87 516L88 517L87 516M218.667 516.333L219.333 516.667L218.667 516.333M88 517L89 518L88 517M226.333 517.667L226.667 518.333L226.333 517.667M536 517L537 518L536 517M89 518L90 519L89 518M520.5 518.5L521.333 519L520.5 518.5M535 518L536 519L535 518M90 519L91 520L90 519M534 519L535 520L534 519M91 520L92 521L91 520M533 520L534 521L533 520M92 521L93 522L92 521M532 521L533 522L532 521M93 522L94 523L93 522M531 522L532 523L531 522M94 523L95 524L94 523M530 523L531 524L530 523M95 524L96 525L95 524M529 524L530 525L529 524M96 525L97 526L96 525M528 525L529 526L528 525M97 526L98 527L97 526M527 526L528 527L527 526M98 527L99 528z"/>
<path stroke="none" fill="#fcfcfc" d="M226.34 528.176C221.467 530.802 224.502 542.135 225.841 545.985C226.351 547.449 227.446 551.462 229.791 550.539C234.51 548.681 231.178 525.568 226.34 528.176z"/>
<path stroke="none" fill="#211380" d="M526 527L527 528L526 527M99 528L100 529z"/>
<path stroke="none" fill="#fcfcfc" d="M384.309 529.086C380.712 531.091 379.292 546.854 381.978 545.654C386.486 543.639 391.889 524.863 384.309 529.086z"/>
<path stroke="none" fill="#211380" d="M525 528L526 529L525 528M100 529L101 530L100 529M524 529L525 530L524 529M101 530L102 531L101 530M523 530L524 531L523 530M102 531L103 532z"/>
<path stroke="none" fill="#fcfcfc" d="M242.109 532.06C237.344 532.869 241.273 539.651 240.872 542.41C239.485 551.946 232.963 557.231 234.58 567.996C235.038 571.043 235.609 576.199 239.986 575.549C247.396 574.448 244.334 562.447 243.519 558C243.324 556.941 242.536 552.089 244.62 552.055C246.371 552.026 246.974 555.7 248.907 556.079C250.642 556.419 250.836 554.092 250.849 552.941C250.897 548.523 248.822 530.92 242.109 532.06z"/>
<path stroke="none" fill="#211380" d="M381.333 531.667L381.667 534.333L381.333 531.667M522 531L523 532L522 531M521 532L522 533L521 532M394.333 534.667L394.667 535.333L394.333 534.667M393.333 536.667L393.667 539.333L393.333 536.667M110 538L111 539L110 538M514 538L515 539L514 538M111 539L112 540L111 539M513 539L514 540L513 539M512 540L513 541L512 540M117 544L118 545L117 544M373.333 544.667L373.667 545.333L373.333 544.667M507 544L508 545L507 544M506 545L507 546L506 545M121 547L122 548L121 547M122 548L123 549L122 548M502 548L503 549L502 548M501 549L502 550L501 549M126 551L127 552L126 551M497 552L498 553L497 552M130 554L131 555z"/>
<path stroke="none" fill="#fcfcfc" d="M371.784 555.086C367.968 558.016 365.51 569.407 365.489 573.995C365.476 576.832 367.176 580.54 370.489 578.508C375.736 575.289 377.265 567.466 376.115 562C375.779 560.405 374.987 552.628 371.784 555.086z"/>
<path stroke="none" fill="#211380" d="M375.333 554.667L375.667 559.333L375.333 554.667M493 555L494 556L493 555M384.333 556.667L384.667 569.333L384.333 556.667M134 557L135 558L134 557M261.315 558.366L261.81 563.634L261.315 558.366M356 557.667L356.5 558.5L356 557.667M490 557L491 558L490 557M489 558L490 559L489 558M137 559L138 560L137 559M354 559.667L354.5 560.5L354 559.667z"/>
<path stroke="none" fill="#fcfcfc" d="M256.684 561.086C251.068 564.826 253.708 582.707 255.424 588C256.157 590.259 256.98 597.135 260.78 594.914C267.327 591.087 264.12 573.83 262.667 568C262.111 565.769 260.41 558.605 256.684 561.086z"/>
<path stroke="none" fill="#211380" d="M486 560L487 561L486 560M140 561L141 562L140 561M358.667 562.333L359.333 562.667L358.667 562.333M483 562L484 563L483 562M143 563L144 564z"/>
<path stroke="none" fill="#fcfcfc" d="M357.471 564.006C350.514 566.544 349.74 581.088 350.04 587C350.177 589.699 351.222 596.131 355.508 594.338C361.396 591.875 360.858 576.107 360.949 571C360.986 568.923 361.306 562.607 357.471 564.006z"/>
<path stroke="none" fill="#211380" d="M480 564L481 565L480 564M146 565L147 566L146 565M346.333 566.667L346.667 567.333L346.333 566.667M477 566L478 567L477 566M151 568L152 569L151 568M472 569L473 570L472 569M154.667 570.333L155.333 570.667L154.667 570.333z"/>
<path stroke="none" fill="#fcfcfc" d="M277.012 570.801C269.722 573.053 268.069 586.63 269.34 592.961C270.016 596.327 272.824 600.7 276.885 599.339C284.432 596.809 287.35 567.607 277.012 570.801z"/>
<path stroke="none" fill="#211380" d="M469 571L470 572L469 571M467 572L468 573L467 572M465 573L466 574L465 573M161.667 574.333L162.333 574.667L161.667 574.333z"/>
<path stroke="none" fill="#fcfcfc" d="M316.04 574.877C305.953 578.811 305.73 606.631 319.996 601.396C331.52 597.167 327.308 570.483 316.04 574.877M336.275 575.086C329.036 578.915 329.399 606.355 340.853 599.957C347.238 596.39 344.287 570.849 336.275 575.086M293.389 576.032C287.779 579.485 286.704 591.517 289.333 596.982C290.738 599.902 295.786 604.411 299.262 601.932C304.858 597.94 303.343 569.905 293.389 576.032z"/>
<path stroke="none" fill="#211380" d="M462 575L463 576L462 575M166.667 577.333L167.333 577.667L166.667 577.333M371.333 577.667L371.667 578.333L371.333 577.667M458 577L459 578L458 577M168.667 578.333L169.333 578.667L168.667 578.333M170.667 579.333L171.333 579.667L170.667 579.333M379.333 579.667L379.667 580.333L379.333 579.667M172.667 580.333L173.333 580.667L172.667 580.333M174.667 581.333L175.333 581.667L174.667 581.333M176.667 582.333L177.333 582.667L176.667 582.333M178.667 583.333L179.333 583.667L178.667 583.333M185.667 586.333L186.333 586.667L185.667 586.333M187.667 587.333L188.333 587.667L187.667 587.333M327.333 587.667L327.667 592.333L327.333 587.667M189.667 588.333L190.333 588.667L189.667 588.333M435.667 588.333L436.333 588.667L435.667 588.333M192.667 589.333L193.333 589.667L192.667 589.333M194.667 590.333L195.333 590.667L194.667 590.333M430.667 590.333L431.333 590.667L430.667 590.333M199.667 592.333L200.333 592.667L199.667 592.333M202.667 593.333L203.333 593.667L202.667 593.333M204.667 594.333L205.333 594.667L204.667 594.333M420.667 594.333L421.333 594.667L420.667 594.333M207.667 595.333L208.333 595.667L207.667 595.333M353.667 595.333L354.333 595.667L353.667 595.333M417.667 595.333L419.333 595.667L417.667 595.333M210.667 596.333L211.333 596.667L210.667 596.333M213.667 597.333L214.333 597.667L213.667 597.333M216.667 598.333L217.333 598.667L216.667 598.333M333.333 598.667L333.667 599.333L333.333 598.667M219.667 599.333L220.333 599.667L219.667 599.333M342 599L343 600L342 599M222.667 600.333L223.333 600.667L222.667 600.333M402.667 600.333L404.333 600.667L402.667 600.333M226.667 601.333L227.333 601.667L226.667 601.333M399.667 601.333L401.333 601.667L399.667 601.333M229.667 602.333L230.333 602.667L229.667 602.333M233.667 603.333L234.333 603.667L233.667 603.333M392.667 603.333L393.333 603.667L392.667 603.333M237.667 604.333L238.333 604.667L237.667 604.333M388.667 604.333L389.333 604.667L388.667 604.333M241.667 605.333L242.333 605.667L241.667 605.333M384.667 605.333L386.333 605.667L384.667 605.333M245.667 606.333L246.333 606.667L245.667 606.333M379.667 606.333L381.333 606.667L379.667 606.333M250.667 607.333L251.333 607.667L250.667 607.333M374.667 607.333L376.333 607.667L374.667 607.333M255.667 608.333L256.333 608.667L255.667 608.333M370.667 608.333L372.333 608.667L370.667 608.333M260.667 609.333L261.333 609.667L260.667 609.333M363.667 609.333L365.333 609.667L363.667 609.333M358.667 610.333L360.333 610.667L358.667 610.333M274.667 611.333L275.333 611.667L274.667 611.333M350.667 611.333L354.333 611.667L350.667 611.333M293.667 613.333L303.333 613.667L293.667 613.333M320.667 613.333L333.333 613.667L320.667 613.333z"/>
</svg>

